<svg width="1440" height="1073" viewBox="0 0 1440 1073" fill="none" xmlns="http://www.w3.org/2000/svg">
<rect width="1440" height="1073" fill="white"/>
<path d="M0 0H884V1073H0V0Z" fill="url(#paint0_linear_2585_238332)"/>
<g clip-path="url(#clip0_2585_238332)">
<path d="M614.592 499.375L507.365 644.004L630.993 568.38L614.592 499.375Z" fill="url(#paint1_linear_2585_238332)"/>
<g style="mix-blend-mode:multiply" opacity="0.15">
<path d="M630.991 568.367L551.262 584.674L563.432 568.367H630.991Z" fill="#231F20"/>
</g>
<path d="M492.701 446L551.128 568.369H630.992L492.701 446Z" fill="url(#paint2_linear_2585_238332)"/>
<path d="M319.552 586.073H308.439C308.07 584.883 307.877 582.871 307.877 580.031C302.077 585.038 294.59 587.552 285.432 587.552C276.275 587.552 268.603 584.69 262.367 578.974C256.139 573.25 253 565.995 253 557.158C253 548.994 255.988 542.168 261.998 536.666C267.991 531.171 275.511 528.405 284.517 528.405C293.524 528.405 301.33 530.971 307.155 536.089V503.742H318.83V571.216C318.83 575.794 319.065 580.749 319.569 586.073H319.552ZM307.138 565.004V552.255C307.138 548.128 304.846 544.527 300.272 541.487C295.706 538.441 290.813 536.902 285.634 536.902C279.188 536.902 274.076 538.81 270.24 542.626C266.413 546.435 264.499 551.279 264.499 557.158C264.499 563.806 266.413 569.042 270.24 572.843C274.076 576.659 279.448 578.575 286.364 578.575C292.55 578.575 297.553 577.34 301.397 574.899C305.224 572.451 307.146 569.153 307.146 565.012L307.138 565.004Z" fill="white"/>
<path d="M386.489 583.139C377.466 586.075 368.871 587.561 360.721 587.561C350.699 587.561 342.457 584.921 335.96 579.633C329.472 574.361 326.232 567.52 326.232 559.134C326.232 549.882 329.447 542.369 335.877 536.593C342.188 531.143 350.213 528.414 359.983 528.414C379.011 528.414 388.722 538.937 389.091 559.955H337.74C338.235 565.827 340.594 570.382 344.874 573.584C349.138 576.816 354.67 578.406 361.451 578.406C368.233 578.406 376.291 576.993 385.197 574.161L386.489 583.146V583.139ZM377.6 551.288C376.971 547.028 374.998 543.582 371.649 540.912C368.326 538.242 364.062 536.911 358.858 536.911C353.654 536.911 349.499 538.25 345.613 540.912C341.718 543.582 339.335 547.028 338.47 551.288H377.6Z" fill="white"/>
<path d="M461.578 556.841C461.578 565.886 458.422 573.251 452.127 578.983C445.824 584.699 437.968 587.561 428.575 587.561C419.93 587.561 412.879 585.32 407.44 580.854V609.451H395.757V548.522C395.757 539.477 395.505 533.154 395.01 529.56H406.5L407.801 535.617C414.365 530.818 421.768 528.414 430.044 528.414C439.193 528.414 446.739 531.143 452.665 536.593C458.607 542.036 461.562 548.788 461.562 556.849L461.578 556.841ZM450.272 557.004C450.272 551.347 448.258 546.569 444.246 542.709C440.225 538.841 435.122 536.911 428.953 536.911C424.009 536.911 419.191 538.656 414.483 542.132C409.791 545.623 407.44 549.483 407.44 553.735V562.876C407.44 567.136 409.438 570.811 413.467 573.91C417.479 577.016 422.389 578.576 428.206 578.576C435.122 578.576 440.553 576.631 444.431 572.771C448.325 568.91 450.272 563.645 450.272 557.011V557.004Z" fill="white"/>
<path d="M520.164 585.591L509.228 587.55L507.381 580.355C501.069 585.154 493.96 587.55 486.036 587.55C479.75 587.55 474.487 586.049 470.29 583.047C466.094 580.059 463.928 576.007 463.811 570.889C463.811 557.053 477.844 549.96 505.904 549.65C504.653 541.486 499.592 537.389 490.686 537.389C484.014 537.389 476.669 538.764 468.628 541.486L467.327 532.168C475.729 529.986 483.695 528.906 491.24 528.906C508.8 528.906 517.579 536.856 517.579 552.756V571.214C517.579 575.356 518.444 580.14 520.164 585.591ZM505.904 568.441V558.642C485.751 558.96 475.679 562.725 475.679 569.913C475.679 575.681 479.322 578.573 486.607 578.573C490.686 578.573 494.774 577.693 498.853 575.947C503.545 573.884 505.912 571.37 505.912 568.441H505.904Z" fill="white"/>
</g>
<path d="M995.344 444.16C994.085 444.16 993.088 443.797 992.352 443.072C991.616 442.336 991.248 441.205 991.248 439.68V433.216H992.624V439.696C992.624 440.763 992.859 441.563 993.328 442.096C993.797 442.619 994.469 442.88 995.344 442.88C996.219 442.88 996.891 442.619 997.36 442.096C997.829 441.563 998.064 440.763 998.064 439.696V433.216H999.44V439.68C999.44 441.205 999.072 442.336 998.336 443.072C997.6 443.797 996.603 444.16 995.344 444.16ZM1003.84 443.104C1004.47 443.104 1004.92 442.992 1005.18 442.768C1005.45 442.533 1005.58 442.261 1005.58 441.952C1005.58 441.749 1005.54 441.579 1005.44 441.44C1005.34 441.291 1005.22 441.163 1005.06 441.056C1004.9 440.939 1004.71 440.843 1004.5 440.768C1004.28 440.683 1004.05 440.603 1003.81 440.528C1003.46 440.421 1003.14 440.304 1002.85 440.176C1002.56 440.048 1002.31 439.893 1002.1 439.712C1001.89 439.531 1001.73 439.317 1001.62 439.072C1001.51 438.816 1001.46 438.517 1001.46 438.176C1001.46 437.525 1001.7 437.019 1002.19 436.656C1002.69 436.293 1003.39 436.112 1004.27 436.112C1004.71 436.112 1005.13 436.155 1005.54 436.24C1005.95 436.315 1006.32 436.437 1006.64 436.608L1006.34 437.616C1006.05 437.477 1005.74 437.371 1005.42 437.296C1005.1 437.211 1004.76 437.168 1004.38 437.168C1003.81 437.168 1003.39 437.264 1003.14 437.456C1002.88 437.648 1002.75 437.888 1002.75 438.176C1002.75 438.517 1002.88 438.773 1003.15 438.944C1003.42 439.115 1003.78 439.275 1004.24 439.424C1004.68 439.563 1005.06 439.712 1005.39 439.872C1005.72 440.021 1005.99 440.197 1006.21 440.4C1006.43 440.592 1006.6 440.816 1006.7 441.072C1006.82 441.328 1006.88 441.627 1006.88 441.968C1006.88 442.629 1006.64 443.163 1006.16 443.568C1005.69 443.963 1004.94 444.16 1003.9 444.16C1003.39 444.16 1002.92 444.117 1002.5 444.032C1002.08 443.957 1001.72 443.835 1001.42 443.664L1001.73 442.656C1002.02 442.795 1002.34 442.907 1002.7 442.992C1003.07 443.067 1003.44 443.104 1003.84 443.104ZM1009.61 440.736C1009.69 441.493 1009.95 442.075 1010.36 442.48C1010.78 442.875 1011.37 443.072 1012.15 443.072C1012.48 443.072 1012.83 443.04 1013.19 442.976C1013.56 442.912 1013.89 442.805 1014.2 442.656L1014.51 443.648C1013.83 443.989 1013.01 444.16 1012.03 444.16C1010.77 444.16 1009.83 443.797 1009.21 443.072C1008.59 442.347 1008.28 441.365 1008.28 440.128C1008.28 439.563 1008.35 439.035 1008.47 438.544C1008.6 438.053 1008.8 437.632 1009.08 437.28C1009.37 436.917 1009.73 436.635 1010.17 436.432C1010.62 436.219 1011.16 436.112 1011.8 436.112C1012.86 436.112 1013.64 436.411 1014.14 437.008C1014.65 437.595 1014.91 438.384 1014.91 439.376C1014.91 439.653 1014.89 439.899 1014.86 440.112C1014.84 440.325 1014.8 440.533 1014.75 440.736H1009.61ZM1011.8 437.136C1011.42 437.136 1011.09 437.205 1010.83 437.344C1010.56 437.472 1010.33 437.653 1010.15 437.888C1009.98 438.112 1009.85 438.384 1009.75 438.704C1009.66 439.024 1009.6 439.371 1009.58 439.744H1013.66V439.376C1013.66 438.672 1013.51 438.123 1013.23 437.728C1012.95 437.333 1012.47 437.136 1011.8 437.136ZM1018.18 437.584C1018.28 437.413 1018.39 437.243 1018.52 437.072C1018.66 436.901 1018.81 436.747 1018.98 436.608C1019.17 436.469 1019.36 436.357 1019.58 436.272C1019.8 436.176 1020.05 436.123 1020.33 436.112C1020.51 436.101 1020.66 436.112 1020.79 436.144C1020.92 436.165 1021.03 436.192 1021.11 436.224C1021.22 436.267 1021.3 436.315 1021.37 436.368L1020.97 437.712C1020.76 437.499 1020.46 437.392 1020.09 437.392C1019.21 437.392 1018.58 437.824 1018.18 438.688V444H1016.84V436.272H1017.93L1018.18 437.584ZM1024.14 444H1022.79V436.272H1023.91L1024.14 437.424C1024.23 437.285 1024.37 437.141 1024.54 436.992C1024.71 436.832 1024.91 436.688 1025.13 436.56C1025.35 436.432 1025.6 436.325 1025.88 436.24C1026.17 436.155 1026.47 436.112 1026.79 436.112C1027.63 436.112 1028.28 436.389 1028.75 436.944C1029.22 437.488 1029.45 438.235 1029.45 439.184V444H1028.14V439.184C1028.14 438.608 1028 438.155 1027.72 437.824C1027.44 437.493 1027.06 437.328 1026.55 437.328C1026.04 437.328 1025.58 437.445 1025.16 437.68C1024.76 437.915 1024.42 438.219 1024.14 438.592V444ZM1036.26 440.192H1034.64C1033.97 440.192 1033.46 440.336 1033.11 440.624C1032.75 440.912 1032.58 441.312 1032.58 441.824C1032.58 442.219 1032.7 442.533 1032.95 442.768C1033.19 442.992 1033.51 443.104 1033.89 443.104C1034.24 443.104 1034.56 443.04 1034.85 442.912C1035.14 442.773 1035.38 442.597 1035.59 442.384C1035.8 442.16 1035.96 441.915 1036.08 441.648C1036.2 441.371 1036.26 441.093 1036.26 440.816V440.192ZM1036.26 438.944C1036.26 438.336 1036.09 437.893 1035.76 437.616C1035.44 437.339 1035.01 437.2 1034.48 437.2C1034.02 437.2 1033.59 437.248 1033.19 437.344C1032.79 437.44 1032.42 437.568 1032.08 437.728L1031.78 436.784C1032.07 436.613 1032.45 436.459 1032.93 436.32C1033.41 436.181 1033.94 436.112 1034.53 436.112C1035.55 436.112 1036.31 436.373 1036.79 436.896C1037.28 437.408 1037.52 438.096 1037.52 438.96V444H1036.51L1036.26 442.688C1036.14 442.88 1036.01 443.067 1035.87 443.248C1035.75 443.419 1035.58 443.573 1035.38 443.712C1035.17 443.84 1034.93 443.947 1034.66 444.032C1034.38 444.117 1034.04 444.16 1033.65 444.16C1033.32 444.16 1033.01 444.107 1032.72 444C1032.43 443.904 1032.18 443.76 1031.95 443.568C1031.74 443.365 1031.57 443.12 1031.44 442.832C1031.32 442.544 1031.27 442.208 1031.27 441.824C1031.27 440.939 1031.56 440.283 1032.16 439.856C1032.77 439.419 1033.6 439.2 1034.66 439.2H1036.26V438.944ZM1041.23 444H1039.89V436.272H1041.01L1041.23 437.424C1041.33 437.285 1041.44 437.141 1041.58 436.992C1041.72 436.832 1041.89 436.688 1042.08 436.56C1042.27 436.432 1042.49 436.325 1042.74 436.24C1042.99 436.155 1043.28 436.112 1043.6 436.112C1044.11 436.112 1044.53 436.245 1044.86 436.512C1045.19 436.779 1045.43 437.141 1045.58 437.6C1045.83 437.195 1046.16 436.848 1046.59 436.56C1047.03 436.261 1047.52 436.112 1048.08 436.112C1048.85 436.112 1049.41 436.373 1049.78 436.896C1050.14 437.419 1050.32 438.096 1050.32 438.928V444H1049.01V438.928C1049.01 438.437 1048.91 438.043 1048.72 437.744C1048.53 437.445 1048.22 437.296 1047.79 437.296C1047.56 437.296 1047.34 437.339 1047.14 437.424C1046.93 437.499 1046.75 437.605 1046.58 437.744C1046.4 437.883 1046.25 438.037 1046.11 438.208C1045.98 438.379 1045.87 438.555 1045.78 438.736V444H1044.46V438.928C1044.46 438.437 1044.37 438.043 1044.18 437.744C1043.98 437.445 1043.68 437.296 1043.26 437.296C1042.79 437.296 1042.38 437.424 1042.03 437.68C1041.69 437.925 1041.42 438.229 1041.23 438.592V444ZM1053.48 440.736C1053.57 441.493 1053.82 442.075 1054.24 442.48C1054.65 442.875 1055.25 443.072 1056.03 443.072C1056.36 443.072 1056.71 443.04 1057.07 442.976C1057.43 442.912 1057.77 442.805 1058.08 442.656L1058.38 443.648C1057.71 443.989 1056.88 444.16 1055.9 444.16C1054.64 444.16 1053.7 443.797 1053.08 443.072C1052.47 442.347 1052.16 441.365 1052.16 440.128C1052.16 439.563 1052.22 439.035 1052.35 438.544C1052.48 438.053 1052.68 437.632 1052.96 437.28C1053.24 436.917 1053.61 436.635 1054.04 436.432C1054.49 436.219 1055.04 436.112 1055.68 436.112C1056.73 436.112 1057.51 436.411 1058.01 437.008C1058.52 437.595 1058.78 438.384 1058.78 439.376C1058.78 439.653 1058.76 439.899 1058.73 440.112C1058.71 440.325 1058.67 440.533 1058.62 440.736H1053.48ZM1055.68 437.136C1055.29 437.136 1054.97 437.205 1054.7 437.344C1054.43 437.472 1054.21 437.653 1054.03 437.888C1053.86 438.112 1053.72 438.384 1053.63 438.704C1053.53 439.024 1053.47 439.371 1053.45 439.744H1057.53V439.376C1057.53 438.672 1057.39 438.123 1057.1 437.728C1056.82 437.333 1056.35 437.136 1055.68 437.136Z" fill="#0C2F53"/>
<path d="M998.384 509.576C998.384 510.056 998.299 510.504 998.128 510.92C997.957 511.336 997.712 511.704 997.392 512.024C997.083 512.333 996.699 512.579 996.24 512.76C995.792 512.931 995.285 513.016 994.72 513.016H992.656V517H991.28V506.216H994.816C995.381 506.216 995.883 506.307 996.32 506.488C996.768 506.659 997.141 506.899 997.44 507.208C997.749 507.507 997.984 507.859 998.144 508.264C998.304 508.669 998.384 509.107 998.384 509.576ZM997.008 509.576C997.008 508.936 996.821 508.429 996.448 508.056C996.075 507.683 995.531 507.496 994.816 507.496H992.656V511.736H994.72C995.435 511.736 995.995 511.544 996.4 511.16C996.805 510.776 997.008 510.248 997.008 509.576ZM1004.18 513.192H1002.56C1001.89 513.192 1001.38 513.336 1001.03 513.624C1000.67 513.912 1000.5 514.312 1000.5 514.824C1000.5 515.219 1000.62 515.533 1000.87 515.768C1001.11 515.992 1001.43 516.104 1001.81 516.104C1002.16 516.104 1002.48 516.04 1002.77 515.912C1003.06 515.773 1003.3 515.597 1003.51 515.384C1003.72 515.16 1003.89 514.915 1004 514.648C1004.12 514.371 1004.18 514.093 1004.18 513.816V513.192ZM1004.18 511.944C1004.18 511.336 1004.01 510.893 1003.68 510.616C1003.36 510.339 1002.94 510.2 1002.4 510.2C1001.94 510.2 1001.51 510.248 1001.11 510.344C1000.71 510.44 1000.34 510.568 1000 510.728L999.699 509.784C999.987 509.613 1000.37 509.459 1000.85 509.32C1001.33 509.181 1001.86 509.112 1002.45 509.112C1003.47 509.112 1004.23 509.373 1004.71 509.896C1005.2 510.408 1005.44 511.096 1005.44 511.96V517H1004.43L1004.18 515.688C1004.06 515.88 1003.93 516.067 1003.79 516.248C1003.67 516.419 1003.5 516.573 1003.3 516.712C1003.1 516.84 1002.86 516.947 1002.58 517.032C1002.3 517.117 1001.97 517.16 1001.57 517.16C1001.24 517.16 1000.93 517.107 1000.64 517C1000.35 516.904 1000.1 516.76 999.875 516.568C999.662 516.365 999.491 516.12 999.363 515.832C999.246 515.544 999.187 515.208 999.187 514.824C999.187 513.939 999.486 513.283 1000.08 512.856C1000.69 512.419 1001.52 512.2 1002.58 512.2H1004.18V511.944ZM1009.76 516.104C1010.39 516.104 1010.84 515.992 1011.11 515.768C1011.37 515.533 1011.51 515.261 1011.51 514.952C1011.51 514.749 1011.46 514.579 1011.36 514.44C1011.27 514.291 1011.14 514.163 1010.98 514.056C1010.82 513.939 1010.63 513.843 1010.42 513.768C1010.2 513.683 1009.97 513.603 1009.73 513.528C1009.38 513.421 1009.06 513.304 1008.77 513.176C1008.48 513.048 1008.23 512.893 1008.02 512.712C1007.81 512.531 1007.65 512.317 1007.54 512.072C1007.43 511.816 1007.38 511.517 1007.38 511.176C1007.38 510.525 1007.62 510.019 1008.11 509.656C1008.61 509.293 1009.31 509.112 1010.19 509.112C1010.63 509.112 1011.05 509.155 1011.46 509.24C1011.87 509.315 1012.24 509.437 1012.56 509.608L1012.26 510.616C1011.97 510.477 1011.67 510.371 1011.35 510.296C1011.03 510.211 1010.68 510.168 1010.31 510.168C1009.73 510.168 1009.31 510.264 1009.06 510.456C1008.8 510.648 1008.67 510.888 1008.67 511.176C1008.67 511.517 1008.81 511.773 1009.07 511.944C1009.34 512.115 1009.7 512.275 1010.16 512.424C1010.6 512.563 1010.98 512.712 1011.31 512.872C1011.64 513.021 1011.92 513.197 1012.13 513.4C1012.35 513.592 1012.52 513.816 1012.63 514.072C1012.74 514.328 1012.8 514.627 1012.8 514.968C1012.8 515.629 1012.56 516.163 1012.08 516.568C1011.61 516.963 1010.86 517.16 1009.83 517.16C1009.31 517.16 1008.84 517.117 1008.42 517.032C1008 516.957 1007.64 516.835 1007.35 516.664L1007.65 515.656C1007.94 515.795 1008.26 515.907 1008.63 515.992C1008.99 516.067 1009.37 516.104 1009.76 516.104ZM1016.68 516.104C1017.31 516.104 1017.76 515.992 1018.03 515.768C1018.29 515.533 1018.43 515.261 1018.43 514.952C1018.43 514.749 1018.38 514.579 1018.28 514.44C1018.19 514.291 1018.06 514.163 1017.9 514.056C1017.74 513.939 1017.55 513.843 1017.34 513.768C1017.13 513.683 1016.9 513.603 1016.65 513.528C1016.3 513.421 1015.98 513.304 1015.69 513.176C1015.4 513.048 1015.15 512.893 1014.94 512.712C1014.74 512.531 1014.58 512.317 1014.46 512.072C1014.35 511.816 1014.3 511.517 1014.3 511.176C1014.3 510.525 1014.54 510.019 1015.04 509.656C1015.54 509.293 1016.23 509.112 1017.12 509.112C1017.55 509.112 1017.97 509.155 1018.38 509.24C1018.8 509.315 1019.16 509.437 1019.48 509.608L1019.18 510.616C1018.89 510.477 1018.59 510.371 1018.27 510.296C1017.95 510.211 1017.6 510.168 1017.23 510.168C1016.65 510.168 1016.24 510.264 1015.98 510.456C1015.72 510.648 1015.6 510.888 1015.6 511.176C1015.6 511.517 1015.73 511.773 1016 511.944C1016.26 512.115 1016.62 512.275 1017.08 512.424C1017.52 512.563 1017.9 512.712 1018.24 512.872C1018.57 513.021 1018.84 513.197 1019.05 513.4C1019.28 513.592 1019.44 513.816 1019.55 514.072C1019.66 514.328 1019.72 514.627 1019.72 514.968C1019.72 515.629 1019.48 516.163 1019 516.568C1018.53 516.963 1017.78 517.16 1016.75 517.16C1016.24 517.16 1015.77 517.117 1015.34 517.032C1014.92 516.957 1014.57 516.835 1014.27 516.664L1014.57 515.656C1014.86 515.795 1015.18 515.907 1015.55 515.992C1015.91 516.067 1016.29 516.104 1016.68 516.104ZM1027.8 513.496C1027.91 513.848 1028 514.2 1028.07 514.552C1028.15 514.893 1028.23 515.293 1028.31 515.752H1028.34C1028.39 515.272 1028.43 514.803 1028.49 514.344C1028.54 513.875 1028.6 513.485 1028.68 513.176L1029.58 509.272H1030.9L1029.06 517H1027.74L1026.49 513.08C1026.34 512.632 1026.22 512.205 1026.12 511.8C1026.03 511.384 1025.95 510.936 1025.86 510.456H1025.83C1025.75 510.936 1025.66 511.384 1025.56 511.8C1025.47 512.205 1025.36 512.632 1025.21 513.08L1023.96 517H1022.63L1020.79 509.272H1022.12L1023.02 513.176C1023.09 513.485 1023.15 513.875 1023.21 514.344C1023.26 514.803 1023.31 515.272 1023.35 515.752H1023.38C1023.47 515.293 1023.55 514.893 1023.62 514.552C1023.7 514.2 1023.79 513.848 1023.9 513.496L1025.21 509.272H1026.49L1027.8 513.496ZM1033.31 513.128C1033.31 513.544 1033.36 513.933 1033.44 514.296C1033.54 514.659 1033.68 514.973 1033.86 515.24C1034.05 515.496 1034.29 515.699 1034.58 515.848C1034.88 515.997 1035.23 516.072 1035.63 516.072C1036.04 516.072 1036.38 515.997 1036.67 515.848C1036.97 515.699 1037.21 515.496 1037.39 515.24C1037.58 514.973 1037.72 514.659 1037.81 514.296C1037.9 513.933 1037.95 513.544 1037.95 513.128C1037.95 512.712 1037.9 512.328 1037.81 511.976C1037.72 511.613 1037.58 511.304 1037.39 511.048C1037.21 510.781 1036.97 510.573 1036.67 510.424C1036.38 510.275 1036.04 510.2 1035.63 510.2C1035.23 510.2 1034.88 510.275 1034.58 510.424C1034.29 510.573 1034.05 510.781 1033.86 511.048C1033.68 511.304 1033.54 511.613 1033.44 511.976C1033.36 512.328 1033.31 512.712 1033.31 513.128ZM1031.98 513.128C1031.98 512.563 1032.05 512.035 1032.19 511.544C1032.34 511.053 1032.57 510.632 1032.86 510.28C1033.16 509.917 1033.54 509.635 1034 509.432C1034.46 509.219 1035 509.112 1035.63 509.112C1036.26 509.112 1036.81 509.219 1037.26 509.432C1037.72 509.635 1038.1 509.917 1038.4 510.28C1038.7 510.632 1038.92 511.053 1039.06 511.544C1039.21 512.035 1039.28 512.563 1039.28 513.128C1039.28 513.693 1039.21 514.221 1039.06 514.712C1038.92 515.203 1038.7 515.629 1038.4 515.992C1038.1 516.355 1037.72 516.643 1037.26 516.856C1036.81 517.059 1036.26 517.16 1035.63 517.16C1035 517.16 1034.46 517.059 1034 516.856C1033.54 516.643 1033.16 516.355 1032.86 515.992C1032.57 515.629 1032.34 515.203 1032.19 514.712C1032.05 514.221 1031.98 513.693 1031.98 513.128ZM1042.5 510.584C1042.59 510.413 1042.71 510.243 1042.83 510.072C1042.97 509.901 1043.13 509.747 1043.3 509.608C1043.48 509.469 1043.68 509.357 1043.89 509.272C1044.11 509.176 1044.36 509.123 1044.64 509.112C1044.82 509.101 1044.98 509.112 1045.11 509.144C1045.23 509.165 1045.34 509.192 1045.43 509.224C1045.53 509.267 1045.62 509.315 1045.68 509.368L1045.28 510.712C1045.07 510.499 1044.77 510.392 1044.4 510.392C1043.53 510.392 1042.89 510.824 1042.5 511.688V517H1041.15V509.272H1042.24L1042.5 510.584ZM1052.15 511.528C1051.89 511.155 1051.58 510.861 1051.21 510.648C1050.84 510.435 1050.46 510.328 1050.07 510.328C1049.4 510.328 1048.85 510.557 1048.42 511.016C1048.01 511.475 1047.8 512.179 1047.8 513.128C1047.8 513.64 1047.86 514.077 1047.97 514.44C1048.09 514.792 1048.25 515.08 1048.44 515.304C1048.64 515.528 1048.86 515.693 1049.11 515.8C1049.37 515.896 1049.63 515.944 1049.89 515.944C1050.18 515.944 1050.46 515.88 1050.73 515.752C1051 515.624 1051.24 515.443 1051.45 515.208C1051.66 514.963 1051.83 514.675 1051.96 514.344C1052.09 514.003 1052.15 513.624 1052.15 513.208V511.528ZM1053.49 517H1052.41L1052.15 515.688C1052.05 515.88 1051.93 516.067 1051.77 516.248C1051.61 516.429 1051.41 516.589 1051.19 516.728C1050.98 516.856 1050.74 516.957 1050.49 517.032C1050.23 517.117 1049.96 517.16 1049.69 517.16C1049.22 517.16 1048.78 517.069 1048.39 516.888C1048 516.707 1047.65 516.445 1047.37 516.104C1047.09 515.763 1046.87 515.347 1046.71 514.856C1046.56 514.355 1046.49 513.784 1046.49 513.144C1046.49 512.589 1046.56 512.072 1046.69 511.592C1046.84 511.101 1047.06 510.675 1047.35 510.312C1047.64 509.939 1047.99 509.645 1048.41 509.432C1048.82 509.219 1049.3 509.112 1049.85 509.112C1050.13 509.112 1050.4 509.149 1050.63 509.224C1050.88 509.299 1051.09 509.395 1051.29 509.512C1051.48 509.629 1051.64 509.763 1051.78 509.912C1051.93 510.061 1052.05 510.211 1052.15 510.36V506.216H1053.49V517Z" fill="#0C2F53"/>
<rect x="982.5" y="454.5" width="343" height="37" rx="5.5" stroke="#0C2F53"/>
<rect x="982.5" y="527.5" width="343" height="37" rx="5.5" stroke="#0C2F53"/>
<rect x="982" y="589" width="344" height="38" rx="6" fill="url(#paint3_linear_2585_238332)"/>
<path d="M1003.2 477V472.058C1003.2 471.386 1003.03 470.887 1002.68 470.56C1002.34 470.224 1001.84 470.056 1001.2 470.056C1000.67 470.056 1000.2 470.173 999.786 470.406C999.375 470.63 999.095 470.929 998.946 471.302L1000.01 472.282C999.758 472.413 999.571 472.576 999.45 472.772C999.329 472.959 999.268 473.201 999.268 473.5V477H998.064V473.668C998.064 473.397 998.129 473.141 998.26 472.898C998.391 472.655 998.577 472.473 998.82 472.352L997.672 471.372C997.747 471.073 997.887 470.784 998.092 470.504C998.307 470.215 998.568 469.963 998.876 469.748C999.184 469.524 999.534 469.347 999.926 469.216C1000.33 469.085 1000.75 469.02 1001.2 469.02C1001.73 469.02 1002.2 469.095 1002.6 469.244C1003 469.393 1003.33 469.603 1003.59 469.874C1003.86 470.145 1004.07 470.467 1004.2 470.84C1004.34 471.204 1004.41 471.61 1004.41 472.058V477H1003.2ZM1008.6 476.118C1009.23 476.118 1009.71 475.997 1010.04 475.754C1010.37 475.502 1010.53 475.217 1010.53 474.9C1010.53 474.704 1010.47 474.531 1010.35 474.382C1010.24 474.233 1010.08 474.102 1009.89 473.99C1009.7 473.869 1009.49 473.766 1009.24 473.682C1009.01 473.598 1008.77 473.519 1008.53 473.444C1008.17 473.341 1007.84 473.229 1007.54 473.108C1007.24 472.977 1006.98 472.823 1006.75 472.646C1006.54 472.459 1006.37 472.245 1006.25 472.002C1006.13 471.75 1006.07 471.451 1006.07 471.106C1006.07 470.443 1006.33 469.93 1006.85 469.566C1007.38 469.202 1008.1 469.02 1009.01 469.02C1009.44 469.02 1009.87 469.067 1010.29 469.16C1010.71 469.244 1011.09 469.37 1011.41 469.538L1011.11 470.49C1010.54 470.191 1009.87 470.042 1009.12 470.042C1008.53 470.042 1008.07 470.145 1007.73 470.35C1007.4 470.555 1007.24 470.807 1007.24 471.106C1007.24 471.274 1007.29 471.423 1007.38 471.554C1007.47 471.685 1007.6 471.801 1007.76 471.904C1007.92 471.997 1008.1 472.086 1008.31 472.17C1008.51 472.245 1008.73 472.319 1008.96 472.394C1009.4 472.534 1009.79 472.683 1010.13 472.842C1010.47 472.991 1010.76 473.164 1010.99 473.36C1011.23 473.556 1011.4 473.78 1011.53 474.032C1011.65 474.284 1011.71 474.583 1011.71 474.928C1011.71 475.591 1011.46 476.127 1010.95 476.538C1010.46 476.939 1009.69 477.14 1008.66 477.14C1008.14 477.14 1007.67 477.093 1007.23 477C1006.8 476.907 1006.43 476.771 1006.14 476.594L1006.43 475.656C1006.72 475.796 1007.05 475.908 1007.42 475.992C1007.8 476.076 1008.19 476.118 1008.6 476.118ZM1014.62 473.542C1014.52 473.542 1014.43 473.579 1014.36 473.654C1014.29 473.719 1014.26 473.817 1014.26 473.948V474.326C1014.26 474.942 1014.43 475.395 1014.78 475.684C1015.12 475.964 1015.65 476.104 1016.36 476.104C1017.1 476.104 1017.69 475.866 1018.11 475.39C1018.53 474.905 1018.74 474.121 1018.74 473.038C1018.74 472.077 1018.53 471.339 1018.11 470.826C1017.69 470.313 1017.1 470.056 1016.34 470.056C1015.73 470.056 1015.18 470.145 1014.71 470.322C1014.24 470.49 1013.83 470.709 1013.47 470.98L1013.08 470.084C1013.24 469.953 1013.44 469.827 1013.67 469.706C1013.9 469.575 1014.16 469.459 1014.44 469.356C1014.72 469.253 1015.02 469.174 1015.34 469.118C1015.66 469.053 1016 469.02 1016.34 469.02C1017.52 469.02 1018.41 469.384 1019.02 470.112C1019.63 470.84 1019.94 471.834 1019.94 473.094C1019.94 474.419 1019.63 475.427 1019.02 476.118C1018.41 476.799 1017.53 477.14 1016.39 477.14C1015.26 477.14 1014.42 476.897 1013.87 476.412C1013.32 475.927 1013.05 475.231 1013.05 474.326V473.906C1013.05 473.421 1013.18 473.066 1013.43 472.842C1013.69 472.618 1014.04 472.506 1014.48 472.506H1015.74V473.542H1014.62ZM1026.84 477V472.058C1026.84 471.386 1026.67 470.887 1026.32 470.56C1025.98 470.224 1025.48 470.056 1024.84 470.056C1024.31 470.056 1023.84 470.173 1023.42 470.406C1023.01 470.63 1022.73 470.929 1022.58 471.302L1023.65 472.282C1023.4 472.413 1023.21 472.576 1023.09 472.772C1022.97 472.959 1022.91 473.201 1022.91 473.5V477H1021.7V473.668C1021.7 473.397 1021.77 473.141 1021.9 472.898C1022.03 472.655 1022.22 472.473 1022.46 472.352L1021.31 471.372C1021.39 471.073 1021.53 470.784 1021.73 470.504C1021.95 470.215 1022.21 469.963 1022.51 469.748C1022.82 469.524 1023.17 469.347 1023.56 469.216C1023.97 469.085 1024.39 469.02 1024.84 469.02C1025.37 469.02 1025.84 469.095 1026.24 469.244C1026.64 469.393 1026.97 469.603 1027.23 469.874C1027.5 470.145 1027.7 470.467 1027.83 470.84C1027.97 471.204 1028.04 471.61 1028.04 472.058V477H1026.84ZM1037.26 477.14C1036.16 477.14 1035.29 476.823 1034.65 476.188C1034 475.544 1033.68 474.555 1033.68 473.22V467.564H1034.88V473.234C1034.88 474.167 1035.09 474.867 1035.5 475.334C1035.91 475.791 1036.5 476.02 1037.26 476.02C1038.03 476.02 1038.62 475.791 1039.03 475.334C1039.44 474.867 1039.64 474.167 1039.64 473.234V467.564H1040.85V473.22C1040.85 474.555 1040.53 475.544 1039.88 476.188C1039.24 476.823 1038.37 477.14 1037.26 477.14ZM1044.7 476.216C1045.25 476.216 1045.64 476.118 1045.87 475.922C1046.11 475.717 1046.22 475.479 1046.22 475.208C1046.22 475.031 1046.18 474.881 1046.1 474.76C1046.01 474.629 1045.9 474.517 1045.76 474.424C1045.62 474.321 1045.46 474.237 1045.27 474.172C1045.08 474.097 1044.88 474.027 1044.67 473.962C1044.36 473.869 1044.08 473.766 1043.83 473.654C1043.58 473.542 1043.36 473.407 1043.17 473.248C1042.99 473.089 1042.85 472.903 1042.75 472.688C1042.66 472.464 1042.61 472.203 1042.61 471.904C1042.61 471.335 1042.83 470.891 1043.26 470.574C1043.69 470.257 1044.3 470.098 1045.08 470.098C1045.46 470.098 1045.83 470.135 1046.18 470.21C1046.55 470.275 1046.87 470.383 1047.15 470.532L1046.88 471.414C1046.63 471.293 1046.36 471.199 1046.08 471.134C1045.8 471.059 1045.5 471.022 1045.17 471.022C1044.67 471.022 1044.31 471.106 1044.08 471.274C1043.86 471.442 1043.75 471.652 1043.75 471.904C1043.75 472.203 1043.86 472.427 1044.1 472.576C1044.33 472.725 1044.65 472.865 1045.05 472.996C1045.43 473.117 1045.77 473.248 1046.06 473.388C1046.34 473.519 1046.58 473.673 1046.77 473.85C1046.97 474.018 1047.11 474.214 1047.2 474.438C1047.31 474.662 1047.36 474.923 1047.36 475.222C1047.36 475.801 1047.15 476.267 1046.73 476.622C1046.32 476.967 1045.66 477.14 1044.75 477.14C1044.31 477.14 1043.89 477.103 1043.52 477.028C1043.16 476.963 1042.84 476.855 1042.58 476.706L1042.85 475.824C1043.1 475.945 1043.39 476.043 1043.7 476.118C1044.02 476.183 1044.35 476.216 1044.7 476.216ZM1049.75 474.144C1049.82 474.807 1050.04 475.315 1050.4 475.67C1050.77 476.015 1051.29 476.188 1051.97 476.188C1052.26 476.188 1052.56 476.16 1052.88 476.104C1053.2 476.048 1053.49 475.955 1053.76 475.824L1054.03 476.692C1053.44 476.991 1052.72 477.14 1051.86 477.14C1050.76 477.14 1049.94 476.823 1049.4 476.188C1048.85 475.553 1048.58 474.695 1048.58 473.612C1048.58 473.117 1048.64 472.655 1048.75 472.226C1048.86 471.797 1049.04 471.428 1049.28 471.12C1049.54 470.803 1049.85 470.555 1050.24 470.378C1050.63 470.191 1051.1 470.098 1051.66 470.098C1052.59 470.098 1053.27 470.359 1053.71 470.882C1054.16 471.395 1054.38 472.086 1054.38 472.954C1054.38 473.197 1054.37 473.411 1054.34 473.598C1054.32 473.785 1054.29 473.967 1054.24 474.144H1049.75ZM1051.66 470.994C1051.33 470.994 1051.04 471.055 1050.81 471.176C1050.58 471.288 1050.38 471.447 1050.22 471.652C1050.07 471.848 1049.96 472.086 1049.87 472.366C1049.79 472.646 1049.74 472.949 1049.72 473.276H1053.29V472.954C1053.29 472.338 1053.16 471.857 1052.91 471.512C1052.67 471.167 1052.25 470.994 1051.66 470.994ZM1057.25 471.386C1057.33 471.237 1057.43 471.087 1057.54 470.938C1057.66 470.789 1057.8 470.653 1057.95 470.532C1058.11 470.411 1058.28 470.313 1058.47 470.238C1058.66 470.154 1058.88 470.107 1059.13 470.098C1059.28 470.089 1059.42 470.098 1059.53 470.126C1059.64 470.145 1059.74 470.168 1059.81 470.196C1059.9 470.233 1059.98 470.275 1060.04 470.322L1059.69 471.498C1059.5 471.311 1059.24 471.218 1058.92 471.218C1058.15 471.218 1057.59 471.596 1057.25 472.352V477H1056.07V470.238H1057.03L1057.25 471.386ZM1062.46 477H1061.28V470.238H1062.26L1062.46 471.246C1062.54 471.125 1062.66 470.999 1062.81 470.868C1062.96 470.728 1063.13 470.602 1063.33 470.49C1063.52 470.378 1063.74 470.285 1063.98 470.21C1064.24 470.135 1064.5 470.098 1064.78 470.098C1065.51 470.098 1066.08 470.341 1066.49 470.826C1066.9 471.302 1067.11 471.955 1067.11 472.786V477H1065.96V472.786C1065.96 472.282 1065.84 471.885 1065.59 471.596C1065.35 471.307 1065.01 471.162 1064.57 471.162C1064.12 471.162 1063.72 471.265 1063.35 471.47C1063 471.675 1062.7 471.941 1062.46 472.268V477ZM1073.06 473.668H1071.65C1071.06 473.668 1070.61 473.794 1070.3 474.046C1070 474.298 1069.84 474.648 1069.84 475.096C1069.84 475.441 1069.95 475.717 1070.16 475.922C1070.38 476.118 1070.65 476.216 1070.99 476.216C1071.3 476.216 1071.58 476.16 1071.83 476.048C1072.08 475.927 1072.3 475.773 1072.47 475.586C1072.66 475.39 1072.81 475.175 1072.91 474.942C1073.01 474.699 1073.06 474.457 1073.06 474.214V473.668ZM1073.06 472.576C1073.06 472.044 1072.92 471.657 1072.63 471.414C1072.35 471.171 1071.98 471.05 1071.51 471.05C1071.11 471.05 1070.73 471.092 1070.37 471.176C1070.03 471.26 1069.71 471.372 1069.41 471.512L1069.14 470.686C1069.39 470.537 1069.73 470.401 1070.15 470.28C1070.57 470.159 1071.04 470.098 1071.55 470.098C1072.45 470.098 1073.1 470.327 1073.52 470.784C1073.95 471.232 1074.17 471.834 1074.17 472.59V477H1073.29L1073.06 475.852C1072.96 476.02 1072.85 476.183 1072.73 476.342C1072.61 476.491 1072.47 476.627 1072.29 476.748C1072.12 476.86 1071.91 476.953 1071.66 477.028C1071.42 477.103 1071.13 477.14 1070.78 477.14C1070.49 477.14 1070.22 477.093 1069.97 477C1069.72 476.916 1069.49 476.79 1069.3 476.622C1069.11 476.445 1068.96 476.23 1068.85 475.978C1068.75 475.726 1068.69 475.432 1068.69 475.096C1068.69 474.321 1068.96 473.747 1069.48 473.374C1070.01 472.991 1070.74 472.8 1071.66 472.8H1073.06V472.576ZM1077.42 477H1076.24V470.238H1077.22L1077.42 471.246C1077.5 471.125 1077.6 470.999 1077.72 470.868C1077.84 470.728 1077.99 470.602 1078.16 470.49C1078.33 470.378 1078.52 470.285 1078.73 470.21C1078.96 470.135 1079.21 470.098 1079.49 470.098C1079.94 470.098 1080.3 470.215 1080.59 470.448C1080.88 470.681 1081.09 470.999 1081.22 471.4C1081.44 471.045 1081.73 470.742 1082.11 470.49C1082.49 470.229 1082.92 470.098 1083.41 470.098C1084.08 470.098 1084.57 470.327 1084.89 470.784C1085.21 471.241 1085.37 471.834 1085.37 472.562V477H1084.22V472.562C1084.22 472.133 1084.14 471.787 1083.97 471.526C1083.8 471.265 1083.53 471.134 1083.16 471.134C1082.95 471.134 1082.76 471.171 1082.58 471.246C1082.4 471.311 1082.24 471.405 1082.09 471.526C1081.94 471.647 1081.81 471.783 1081.69 471.932C1081.57 472.081 1081.48 472.235 1081.39 472.394V477H1080.24V472.562C1080.24 472.133 1080.16 471.787 1079.99 471.526C1079.82 471.265 1079.56 471.134 1079.19 471.134C1078.78 471.134 1078.42 471.246 1078.12 471.47C1077.82 471.685 1077.58 471.951 1077.42 472.268V477ZM1088.14 474.144C1088.21 474.807 1088.43 475.315 1088.79 475.67C1089.16 476.015 1089.68 476.188 1090.36 476.188C1090.65 476.188 1090.96 476.16 1091.27 476.104C1091.59 476.048 1091.88 475.955 1092.15 475.824L1092.42 476.692C1091.83 476.991 1091.11 477.14 1090.25 477.14C1089.15 477.14 1088.33 476.823 1087.79 476.188C1087.25 475.553 1086.97 474.695 1086.97 473.612C1086.97 473.117 1087.03 472.655 1087.14 472.226C1087.25 471.797 1087.43 471.428 1087.67 471.12C1087.93 470.803 1088.24 470.555 1088.63 470.378C1089.02 470.191 1089.49 470.098 1090.05 470.098C1090.98 470.098 1091.66 470.359 1092.1 470.882C1092.55 471.395 1092.77 472.086 1092.77 472.954C1092.77 473.197 1092.76 473.411 1092.73 473.598C1092.71 473.785 1092.68 473.967 1092.63 474.144H1088.14ZM1090.05 470.994C1089.72 470.994 1089.43 471.055 1089.2 471.176C1088.97 471.288 1088.77 471.447 1088.61 471.652C1088.46 471.848 1088.35 472.086 1088.26 472.366C1088.18 472.646 1088.13 472.949 1088.11 473.276H1091.68V472.954C1091.68 472.338 1091.55 471.857 1091.3 471.512C1091.06 471.167 1090.64 470.994 1090.05 470.994Z" fill="#BDBDBD"/>
<path d="M1003.2 550V545.058C1003.2 544.386 1003.03 543.887 1002.68 543.56C1002.34 543.224 1001.84 543.056 1001.2 543.056C1000.67 543.056 1000.2 543.173 999.786 543.406C999.375 543.63 999.095 543.929 998.946 544.302L1000.01 545.282C999.758 545.413 999.571 545.576 999.45 545.772C999.329 545.959 999.268 546.201 999.268 546.5V550H998.064V546.668C998.064 546.397 998.129 546.141 998.26 545.898C998.391 545.655 998.577 545.473 998.82 545.352L997.672 544.372C997.747 544.073 997.887 543.784 998.092 543.504C998.307 543.215 998.568 542.963 998.876 542.748C999.184 542.524 999.534 542.347 999.926 542.216C1000.33 542.085 1000.75 542.02 1001.2 542.02C1001.73 542.02 1002.2 542.095 1002.6 542.244C1003 542.393 1003.33 542.603 1003.59 542.874C1003.86 543.145 1004.07 543.467 1004.2 543.84C1004.34 544.204 1004.41 544.61 1004.41 545.058V550H1003.2ZM1008.6 549.118C1009.23 549.118 1009.71 548.997 1010.04 548.754C1010.37 548.502 1010.53 548.217 1010.53 547.9C1010.53 547.704 1010.47 547.531 1010.35 547.382C1010.24 547.233 1010.08 547.102 1009.89 546.99C1009.7 546.869 1009.49 546.766 1009.24 546.682C1009.01 546.598 1008.77 546.519 1008.53 546.444C1008.17 546.341 1007.84 546.229 1007.54 546.108C1007.24 545.977 1006.98 545.823 1006.75 545.646C1006.54 545.459 1006.37 545.245 1006.25 545.002C1006.13 544.75 1006.07 544.451 1006.07 544.106C1006.07 543.443 1006.33 542.93 1006.85 542.566C1007.38 542.202 1008.1 542.02 1009.01 542.02C1009.44 542.02 1009.87 542.067 1010.29 542.16C1010.71 542.244 1011.09 542.37 1011.41 542.538L1011.11 543.49C1010.54 543.191 1009.87 543.042 1009.12 543.042C1008.53 543.042 1008.07 543.145 1007.73 543.35C1007.4 543.555 1007.24 543.807 1007.24 544.106C1007.24 544.274 1007.29 544.423 1007.38 544.554C1007.47 544.685 1007.6 544.801 1007.76 544.904C1007.92 544.997 1008.1 545.086 1008.31 545.17C1008.51 545.245 1008.73 545.319 1008.96 545.394C1009.4 545.534 1009.79 545.683 1010.13 545.842C1010.47 545.991 1010.76 546.164 1010.99 546.36C1011.23 546.556 1011.4 546.78 1011.53 547.032C1011.65 547.284 1011.71 547.583 1011.71 547.928C1011.71 548.591 1011.46 549.127 1010.95 549.538C1010.46 549.939 1009.69 550.14 1008.66 550.14C1008.14 550.14 1007.67 550.093 1007.23 550C1006.8 549.907 1006.43 549.771 1006.14 549.594L1006.43 548.656C1006.72 548.796 1007.05 548.908 1007.42 548.992C1007.8 549.076 1008.19 549.118 1008.6 549.118ZM1014.62 546.542C1014.52 546.542 1014.43 546.579 1014.36 546.654C1014.29 546.719 1014.26 546.817 1014.26 546.948V547.326C1014.26 547.942 1014.43 548.395 1014.78 548.684C1015.12 548.964 1015.65 549.104 1016.36 549.104C1017.1 549.104 1017.69 548.866 1018.11 548.39C1018.53 547.905 1018.74 547.121 1018.74 546.038C1018.74 545.077 1018.53 544.339 1018.11 543.826C1017.69 543.313 1017.1 543.056 1016.34 543.056C1015.73 543.056 1015.18 543.145 1014.71 543.322C1014.24 543.49 1013.83 543.709 1013.47 543.98L1013.08 543.084C1013.24 542.953 1013.44 542.827 1013.67 542.706C1013.9 542.575 1014.16 542.459 1014.44 542.356C1014.72 542.253 1015.02 542.174 1015.34 542.118C1015.66 542.053 1016 542.02 1016.34 542.02C1017.52 542.02 1018.41 542.384 1019.02 543.112C1019.63 543.84 1019.94 544.834 1019.94 546.094C1019.94 547.419 1019.63 548.427 1019.02 549.118C1018.41 549.799 1017.53 550.14 1016.39 550.14C1015.26 550.14 1014.42 549.897 1013.87 549.412C1013.32 548.927 1013.05 548.231 1013.05 547.326V546.906C1013.05 546.421 1013.18 546.066 1013.43 545.842C1013.69 545.618 1014.04 545.506 1014.48 545.506H1015.74V546.542H1014.62ZM1026.84 550V545.058C1026.84 544.386 1026.67 543.887 1026.32 543.56C1025.98 543.224 1025.48 543.056 1024.84 543.056C1024.31 543.056 1023.84 543.173 1023.42 543.406C1023.01 543.63 1022.73 543.929 1022.58 544.302L1023.65 545.282C1023.4 545.413 1023.21 545.576 1023.09 545.772C1022.97 545.959 1022.91 546.201 1022.91 546.5V550H1021.7V546.668C1021.7 546.397 1021.77 546.141 1021.9 545.898C1022.03 545.655 1022.22 545.473 1022.46 545.352L1021.31 544.372C1021.39 544.073 1021.53 543.784 1021.73 543.504C1021.95 543.215 1022.21 542.963 1022.51 542.748C1022.82 542.524 1023.17 542.347 1023.56 542.216C1023.97 542.085 1024.39 542.02 1024.84 542.02C1025.37 542.02 1025.84 542.095 1026.24 542.244C1026.64 542.393 1026.97 542.603 1027.23 542.874C1027.5 543.145 1027.7 543.467 1027.83 543.84C1027.97 544.204 1028.04 544.61 1028.04 545.058V550H1026.84ZM1032.24 549.118C1032.87 549.118 1033.35 548.997 1033.68 548.754C1034.01 548.502 1034.17 548.217 1034.17 547.9C1034.17 547.704 1034.11 547.531 1033.99 547.382C1033.88 547.233 1033.72 547.102 1033.53 546.99C1033.34 546.869 1033.12 546.766 1032.88 546.682C1032.65 546.598 1032.41 546.519 1032.17 546.444C1031.81 546.341 1031.48 546.229 1031.17 546.108C1030.88 545.977 1030.61 545.823 1030.39 545.646C1030.18 545.459 1030.01 545.245 1029.89 545.002C1029.76 544.75 1029.7 544.451 1029.7 544.106C1029.7 543.443 1029.97 542.93 1030.49 542.566C1031.02 542.202 1031.74 542.02 1032.64 542.02C1033.08 542.02 1033.51 542.067 1033.93 542.16C1034.35 542.244 1034.73 542.37 1035.05 542.538L1034.74 543.49C1034.17 543.191 1033.51 543.042 1032.76 543.042C1032.17 543.042 1031.71 543.145 1031.37 543.35C1031.04 543.555 1030.88 543.807 1030.88 544.106C1030.88 544.274 1030.93 544.423 1031.02 544.554C1031.11 544.685 1031.24 544.801 1031.4 544.904C1031.56 544.997 1031.74 545.086 1031.94 545.17C1032.15 545.245 1032.37 545.319 1032.6 545.394C1033.04 545.534 1033.43 545.683 1033.76 545.842C1034.11 545.991 1034.4 546.164 1034.63 546.36C1034.87 546.556 1035.04 546.78 1035.16 547.032C1035.29 547.284 1035.35 547.583 1035.35 547.928C1035.35 548.591 1035.09 549.127 1034.59 549.538C1034.1 549.939 1033.33 550.14 1032.29 550.14C1031.78 550.14 1031.3 550.093 1030.87 550C1030.44 549.907 1030.07 549.771 1029.77 549.594L1030.07 548.656C1030.36 548.796 1030.69 548.908 1031.06 548.992C1031.44 549.076 1031.83 549.118 1032.24 549.118ZM1042.49 550L1041.45 546.444C1041.19 545.585 1040.71 545.147 1040.02 545.128L1038.27 546.57V550H1037.07V542.16H1038.27V545.24L1042 542.16H1043.62L1040.88 544.428C1041.38 544.503 1041.77 544.713 1042.04 545.058C1042.32 545.403 1042.54 545.833 1042.7 546.346L1043.78 550H1042.49ZM1041.59 541.096C1040.65 541.096 1040.18 540.676 1040.18 539.836V539.276H1041.33V539.696C1041.33 539.976 1041.46 540.116 1041.72 540.116H1045.02V541.096H1041.59ZM1050.01 550V546.22H1048.05C1047.38 546.22 1046.86 546.351 1046.48 546.612C1046.09 546.864 1045.9 547.256 1045.9 547.788C1045.9 548.245 1046.04 548.586 1046.31 548.81C1046.58 549.025 1046.92 549.132 1047.33 549.132C1047.53 549.132 1047.73 549.113 1047.95 549.076C1048.17 549.029 1048.37 548.969 1048.54 548.894L1048.73 549.888C1048.53 549.963 1048.29 550.023 1048.02 550.07C1047.75 550.117 1047.48 550.14 1047.21 550.14C1046.85 550.14 1046.52 550.093 1046.21 550C1045.91 549.897 1045.65 549.753 1045.43 549.566C1045.2 549.37 1045.03 549.127 1044.9 548.838C1044.76 548.539 1044.7 548.194 1044.7 547.802C1044.7 546.981 1044.99 546.341 1045.57 545.884C1046.15 545.417 1047.02 545.184 1048.19 545.184H1050.01V545.002C1050.01 544.713 1049.97 544.447 1049.91 544.204C1049.84 543.961 1049.73 543.751 1049.57 543.574C1049.42 543.397 1049.22 543.261 1048.97 543.168C1048.73 543.075 1048.43 543.028 1048.07 543.028C1047.5 543.028 1046.99 543.107 1046.53 543.266C1046.09 543.425 1045.69 543.621 1045.36 543.854L1044.97 543C1045.11 542.879 1045.3 542.757 1045.53 542.636C1045.76 542.515 1046.01 542.412 1046.28 542.328C1046.56 542.235 1046.86 542.16 1047.16 542.104C1047.47 542.048 1047.77 542.02 1048.07 542.02C1048.67 542.02 1049.2 542.123 1049.66 542.328L1050.26 541.614H1051.63L1050.52 542.944C1050.76 543.196 1050.93 543.495 1051.04 543.84C1051.15 544.185 1051.21 544.568 1051.21 544.988V550H1050.01ZM1058.74 546.976C1058.87 547.237 1058.98 547.499 1059.07 547.76C1059.16 548.021 1059.25 548.315 1059.35 548.642H1059.37C1059.32 548.269 1059.28 547.9 1059.26 547.536C1059.25 547.172 1059.25 546.775 1059.25 546.346V542.16H1060.42V550H1059.14L1057.36 546.458C1057.25 546.243 1057.15 546.024 1057.06 545.8C1056.99 545.576 1056.94 545.413 1056.92 545.31H1056.9C1056.88 545.413 1056.83 545.576 1056.74 545.8C1056.67 546.024 1056.57 546.243 1056.46 546.458L1054.63 550H1053.34V543.42C1053.34 543.056 1053.44 542.753 1053.65 542.51C1053.86 542.267 1054.16 542.151 1054.54 542.16H1055.47V543.196H1054.87C1054.63 543.196 1054.52 543.317 1054.52 543.56V546.346C1054.52 546.775 1054.51 547.172 1054.49 547.536C1054.47 547.9 1054.44 548.269 1054.39 548.642H1054.42C1054.49 548.371 1054.58 548.091 1054.67 547.802C1054.77 547.503 1054.89 547.223 1055.03 546.962L1056.43 544.358H1057.39L1058.74 546.976ZM1059.28 541.096V538.772H1060.45V541.096H1059.28ZM1065.89 550V544.946C1065.89 543.686 1065.33 543.056 1064.22 543.056C1063.77 543.056 1063.35 543.14 1062.96 543.308C1062.57 543.467 1062.24 543.658 1061.97 543.882L1061.64 542.972C1061.78 542.851 1061.95 542.734 1062.15 542.622C1062.35 542.501 1062.57 542.398 1062.81 542.314C1063.05 542.221 1063.3 542.151 1063.55 542.104C1063.81 542.048 1064.07 542.02 1064.33 542.02C1065.25 542.02 1065.93 542.281 1066.39 542.804C1066.86 543.317 1067.09 544.05 1067.09 545.002V550H1065.89ZM1070.39 547.2C1070.39 547.863 1070.52 548.348 1070.78 548.656C1071.04 548.955 1071.47 549.104 1072.05 549.104C1072.29 549.104 1072.52 549.062 1072.74 548.978C1072.97 548.894 1073.19 548.777 1073.4 548.628C1073.6 548.479 1073.79 548.311 1073.94 548.124C1074.1 547.928 1074.23 547.723 1074.34 547.508V542.16H1075.54V550H1074.41L1074.34 548.852C1074.07 549.244 1073.73 549.557 1073.33 549.79C1072.93 550.023 1072.41 550.14 1071.77 550.14C1070.92 550.14 1070.27 549.893 1069.83 549.398C1069.4 548.894 1069.18 548.166 1069.18 547.214V542.16H1070.39V547.2Z" fill="#BDBDBD"/>
<path d="M1089.15 614.176C1088.44 614.176 1087.83 614.112 1087.32 613.984C1086.81 613.856 1086.36 613.685 1085.96 613.472L1086.39 612.08C1086.73 612.261 1087.13 612.411 1087.59 612.528C1088.06 612.635 1088.55 612.688 1089.07 612.688C1089.75 612.688 1090.31 612.56 1090.76 612.304C1091.22 612.037 1091.45 611.621 1091.45 611.056C1091.45 610.779 1091.38 610.544 1091.24 610.352C1091.11 610.149 1090.94 609.979 1090.73 609.84C1090.52 609.701 1090.27 609.579 1089.98 609.472C1089.69 609.365 1089.4 609.264 1089.1 609.168C1088.77 609.061 1088.42 608.933 1088.06 608.784C1087.69 608.635 1087.36 608.443 1087.05 608.208C1086.75 607.963 1086.5 607.664 1086.3 607.312C1086.09 606.949 1085.99 606.501 1085.99 605.968C1085.99 605.552 1086.06 605.168 1086.2 604.816C1086.35 604.464 1086.57 604.155 1086.87 603.888C1087.17 603.621 1087.56 603.413 1088.03 603.264C1088.49 603.115 1089.06 603.04 1089.72 603.04C1090.3 603.04 1090.82 603.093 1091.29 603.2C1091.76 603.307 1092.2 603.467 1092.6 603.68L1092.17 605.024C1091.81 604.853 1091.42 604.731 1091 604.656C1090.6 604.571 1090.19 604.528 1089.79 604.528C1089.05 604.528 1088.51 604.661 1088.17 604.928C1087.84 605.195 1087.67 605.531 1087.67 605.936C1087.67 606.213 1087.73 606.448 1087.85 606.64C1087.98 606.821 1088.14 606.981 1088.35 607.12C1088.55 607.259 1088.78 607.381 1089.05 607.488C1089.32 607.584 1089.59 607.68 1089.88 607.776C1090.25 607.904 1090.63 608.053 1091.02 608.224C1091.4 608.384 1091.75 608.592 1092.06 608.848C1092.38 609.093 1092.63 609.397 1092.83 609.76C1093.03 610.123 1093.13 610.565 1093.13 611.088C1093.13 611.621 1093.03 612.08 1092.83 612.464C1092.63 612.848 1092.36 613.168 1092.01 613.424C1091.66 613.68 1091.24 613.872 1090.75 614C1090.25 614.117 1089.72 614.176 1089.15 614.176ZM1096.72 614H1095.02V606.272H1096.72V614ZM1095.87 605.072C1095.53 605.072 1095.26 604.971 1095.07 604.768C1094.89 604.565 1094.8 604.325 1094.8 604.048C1094.8 603.771 1094.89 603.536 1095.07 603.344C1095.26 603.141 1095.53 603.04 1095.87 603.04C1096.21 603.04 1096.47 603.141 1096.65 603.344C1096.84 603.536 1096.94 603.771 1096.94 604.048C1096.94 604.325 1096.84 604.565 1096.65 604.768C1096.47 604.971 1096.21 605.072 1095.87 605.072ZM1104.09 608.688C1103.89 608.357 1103.62 608.08 1103.29 607.856C1102.97 607.632 1102.61 607.52 1102.22 607.52C1101.64 607.52 1101.17 607.733 1100.79 608.16C1100.42 608.576 1100.23 609.2 1100.23 610.032C1100.23 610.501 1100.28 610.896 1100.38 611.216C1100.49 611.536 1100.62 611.797 1100.79 612C1100.98 612.203 1101.18 612.352 1101.4 612.448C1101.64 612.533 1101.88 612.576 1102.14 612.576C1102.71 612.576 1103.18 612.363 1103.55 611.936C1103.91 611.509 1104.09 610.917 1104.09 610.16V608.688ZM1104.11 612.672C1103.9 613.013 1103.61 613.323 1103.21 613.6C1102.82 613.867 1102.34 614 1101.79 614C1101.32 614 1100.89 613.909 1100.49 613.728C1100.1 613.547 1099.75 613.291 1099.47 612.96C1099.18 612.619 1098.95 612.203 1098.78 611.712C1098.62 611.221 1098.54 610.667 1098.54 610.048C1098.54 609.525 1098.61 609.024 1098.75 608.544C1098.9 608.064 1099.11 607.643 1099.39 607.28C1099.66 606.917 1100.01 606.629 1100.41 606.416C1100.82 606.203 1101.29 606.096 1101.82 606.096C1102.11 606.096 1102.37 606.133 1102.6 606.208C1102.84 606.283 1103.05 606.384 1103.23 606.512C1103.42 606.629 1103.58 606.763 1103.72 606.912C1103.87 607.061 1103.99 607.211 1104.09 607.36L1104.31 606.272H1105.79V613.36C1105.79 614.064 1105.69 614.661 1105.5 615.152C1105.32 615.643 1105.06 616.043 1104.71 616.352C1104.38 616.661 1103.99 616.885 1103.53 617.024C1103.07 617.163 1102.58 617.232 1102.04 617.232C1101.46 617.232 1100.9 617.157 1100.36 617.008C1099.84 616.859 1099.41 616.677 1099.08 616.464L1099.51 615.136C1099.86 615.349 1100.23 615.509 1100.63 615.616C1101.04 615.723 1101.45 615.776 1101.85 615.776C1102.18 615.776 1102.48 615.739 1102.75 615.664C1103.02 615.589 1103.26 615.461 1103.47 615.28C1103.67 615.109 1103.82 614.869 1103.93 614.56C1104.05 614.261 1104.11 613.877 1104.11 613.408V612.672ZM1109.73 614H1108.03V606.272H1109.51L1109.73 607.36C1109.84 607.221 1109.98 607.077 1110.15 606.928C1110.32 606.779 1110.51 606.645 1110.74 606.528C1110.96 606.4 1111.21 606.299 1111.47 606.224C1111.74 606.139 1112.03 606.096 1112.34 606.096C1113.14 606.096 1113.77 606.368 1114.23 606.912C1114.68 607.445 1114.91 608.197 1114.91 609.168V614H1113.22V609.2C1113.22 608.667 1113.11 608.256 1112.88 607.968C1112.67 607.669 1112.34 607.52 1111.89 607.52C1111.44 607.52 1111.03 607.632 1110.66 607.856C1110.28 608.08 1109.98 608.352 1109.73 608.672V614ZM1122.81 614H1121.08V603.216H1122.81V614ZM1126.86 614H1125.16V606.272H1126.63L1126.86 607.36C1126.96 607.221 1127.1 607.077 1127.27 606.928C1127.44 606.779 1127.64 606.645 1127.86 606.528C1128.09 606.4 1128.33 606.299 1128.6 606.224C1128.87 606.139 1129.15 606.096 1129.46 606.096C1130.26 606.096 1130.89 606.368 1131.35 606.912C1131.81 607.445 1132.04 608.197 1132.04 609.168V614H1130.34V609.2C1130.34 608.667 1130.23 608.256 1130.01 607.968C1129.79 607.669 1129.46 607.52 1129.02 607.52C1128.57 607.52 1128.16 607.632 1127.78 607.856C1127.41 608.08 1127.1 608.352 1126.86 608.672V614ZM1144.99 603.216L1146.7 608.816C1146.86 609.339 1147 609.893 1147.1 610.48C1147.22 611.056 1147.32 611.685 1147.41 612.368H1147.44C1147.46 612.027 1147.48 611.701 1147.5 611.392C1147.54 611.083 1147.57 610.779 1147.6 610.48C1147.64 610.181 1147.69 609.883 1147.74 609.584C1147.8 609.275 1147.86 608.955 1147.94 608.624L1149.12 603.216H1150.86L1148.37 614H1146.62L1144.75 607.712C1144.61 607.264 1144.49 606.789 1144.38 606.288C1144.29 605.787 1144.2 605.275 1144.13 604.752H1144.1C1144.02 605.275 1143.93 605.787 1143.82 606.288C1143.73 606.789 1143.61 607.264 1143.47 607.712L1141.6 614H1139.86L1137.36 603.216H1139.1L1140.29 608.624C1140.36 608.955 1140.43 609.275 1140.48 609.584C1140.53 609.883 1140.58 610.181 1140.61 610.48C1140.65 610.779 1140.68 611.083 1140.7 611.392C1140.74 611.701 1140.76 612.027 1140.78 612.368H1140.82C1140.9 611.685 1141 611.056 1141.1 610.48C1141.22 609.893 1141.36 609.339 1141.52 608.816L1143.23 603.216H1144.99ZM1154.12 614H1152.43V606.272H1154.12V614ZM1153.27 605.072C1152.93 605.072 1152.67 604.971 1152.47 604.768C1152.29 604.565 1152.2 604.325 1152.2 604.048C1152.2 603.771 1152.29 603.536 1152.47 603.344C1152.67 603.141 1152.93 603.04 1153.27 603.04C1153.62 603.04 1153.88 603.141 1154.06 603.344C1154.25 603.536 1154.35 603.771 1154.35 604.048C1154.35 604.325 1154.25 604.565 1154.06 604.768C1153.88 604.971 1153.62 605.072 1153.27 605.072ZM1158.33 611.744C1158.33 612.096 1158.39 612.363 1158.5 612.544C1158.63 612.725 1158.86 612.816 1159.19 612.816C1159.61 612.816 1159.99 612.709 1160.33 612.496L1160.7 613.728C1160.45 613.877 1160.18 613.989 1159.9 614.064C1159.62 614.139 1159.29 614.176 1158.9 614.176C1158.14 614.176 1157.57 613.984 1157.21 613.6C1156.86 613.205 1156.68 612.587 1156.68 611.744V607.536H1155.5V606.272H1156.7L1157.1 604.064H1158.33V606.272H1160.62V607.536H1158.33V611.744ZM1163.93 614H1162.24V603.216H1163.93V607.328C1164.04 607.2 1164.18 607.061 1164.35 606.912C1164.52 606.763 1164.72 606.629 1164.94 606.512C1165.17 606.395 1165.41 606.299 1165.68 606.224C1165.96 606.139 1166.25 606.096 1166.57 606.096C1167.34 606.096 1167.96 606.368 1168.43 606.912C1168.9 607.445 1169.13 608.197 1169.13 609.168V614H1167.44V609.2C1167.44 608.667 1167.33 608.256 1167.1 607.968C1166.88 607.669 1166.54 607.52 1166.08 607.52C1165.63 607.52 1165.22 607.632 1164.85 607.856C1164.48 608.069 1164.18 608.331 1163.93 608.64V614ZM1183.89 614H1182.1L1181.16 611.344H1176.98L1176.05 614H1174.26L1178.2 603.216H1179.96L1183.89 614ZM1179.83 607.568L1179.09 605.008H1179.06L1178.33 607.568L1177.53 609.856H1180.63L1179.83 607.568ZM1188.49 612.848C1188.83 612.848 1189.17 612.811 1189.51 612.736C1189.85 612.651 1190.18 612.523 1190.49 612.352L1190.87 613.568C1190.16 613.973 1189.33 614.176 1188.39 614.176C1187.75 614.176 1187.19 614.075 1186.71 613.872C1186.23 613.659 1185.83 613.371 1185.51 613.008C1185.19 612.635 1184.95 612.203 1184.79 611.712C1184.63 611.221 1184.55 610.693 1184.55 610.128C1184.55 609.573 1184.63 609.051 1184.79 608.56C1184.95 608.069 1185.19 607.643 1185.51 607.28C1185.83 606.907 1186.23 606.619 1186.71 606.416C1187.2 606.203 1187.78 606.096 1188.44 606.096C1188.87 606.096 1189.28 606.144 1189.67 606.24C1190.07 606.325 1190.44 606.464 1190.78 606.656L1190.41 607.872C1189.83 607.573 1189.2 607.424 1188.51 607.424C1187.72 607.424 1187.14 607.675 1186.78 608.176C1186.43 608.677 1186.25 609.328 1186.25 610.128C1186.25 610.939 1186.43 611.595 1186.79 612.096C1187.16 612.597 1187.72 612.848 1188.49 612.848ZM1195.6 612.848C1195.94 612.848 1196.28 612.811 1196.62 612.736C1196.96 612.651 1197.29 612.523 1197.6 612.352L1197.98 613.568C1197.27 613.973 1196.44 614.176 1195.5 614.176C1194.86 614.176 1194.3 614.075 1193.82 613.872C1193.34 613.659 1192.94 613.371 1192.62 613.008C1192.3 612.635 1192.06 612.203 1191.9 611.712C1191.74 611.221 1191.66 610.693 1191.66 610.128C1191.66 609.573 1191.74 609.051 1191.9 608.56C1192.06 608.069 1192.3 607.643 1192.62 607.28C1192.94 606.907 1193.34 606.619 1193.82 606.416C1194.31 606.203 1194.89 606.096 1195.55 606.096C1195.98 606.096 1196.39 606.144 1196.78 606.24C1197.18 606.325 1197.55 606.464 1197.89 606.656L1197.52 607.872C1196.94 607.573 1196.31 607.424 1195.61 607.424C1194.83 607.424 1194.25 607.675 1193.89 608.176C1193.53 608.677 1193.36 609.328 1193.36 610.128C1193.36 610.939 1193.54 611.595 1193.9 612.096C1194.27 612.597 1194.83 612.848 1195.6 612.848ZM1200.41 610.128C1200.41 610.939 1200.57 611.595 1200.9 612.096C1201.23 612.597 1201.76 612.848 1202.47 612.848C1203.18 612.848 1203.71 612.597 1204.04 612.096C1204.38 611.595 1204.55 610.939 1204.55 610.128C1204.55 609.328 1204.38 608.677 1204.04 608.176C1203.71 607.675 1203.18 607.424 1202.47 607.424C1201.76 607.424 1201.23 607.675 1200.9 608.176C1200.57 608.677 1200.41 609.328 1200.41 610.128ZM1198.71 610.128C1198.71 609.573 1198.78 609.051 1198.93 608.56C1199.09 608.069 1199.33 607.643 1199.64 607.28C1199.95 606.907 1200.34 606.619 1200.81 606.416C1201.28 606.203 1201.83 606.096 1202.47 606.096C1203.11 606.096 1203.66 606.203 1204.13 606.416C1204.6 606.619 1204.99 606.907 1205.3 607.28C1205.62 607.643 1205.86 608.069 1206.01 608.56C1206.16 609.051 1206.23 609.573 1206.23 610.128C1206.23 610.693 1206.16 611.221 1206.01 611.712C1205.86 612.203 1205.62 612.635 1205.3 613.008C1204.99 613.371 1204.6 613.659 1204.13 613.872C1203.66 614.075 1203.11 614.176 1202.47 614.176C1201.83 614.176 1201.28 614.075 1200.81 613.872C1200.34 613.659 1199.95 613.371 1199.64 613.008C1199.33 612.635 1199.09 612.203 1198.93 611.712C1198.78 611.221 1198.71 610.693 1198.71 610.128ZM1213.03 606.272H1214.72V614H1213.27L1213.03 612.848C1212.92 612.997 1212.79 613.152 1212.63 613.312C1212.48 613.461 1212.3 613.6 1212.08 613.728C1211.88 613.856 1211.65 613.963 1211.4 614.048C1211.14 614.133 1210.86 614.176 1210.55 614.176C1209.75 614.176 1209.11 613.936 1208.64 613.456C1208.18 612.976 1207.96 612.219 1207.96 611.184V606.272H1209.64V611.152C1209.64 611.696 1209.75 612.101 1209.97 612.368C1210.21 612.635 1210.53 612.768 1210.95 612.768C1211.41 612.768 1211.81 612.645 1212.15 612.4C1212.49 612.144 1212.78 611.851 1213.03 611.52V606.272ZM1218.65 614H1216.96V606.272H1218.43L1218.65 607.36C1218.76 607.221 1218.9 607.077 1219.07 606.928C1219.24 606.779 1219.44 606.645 1219.66 606.528C1219.88 606.4 1220.13 606.299 1220.4 606.224C1220.66 606.139 1220.95 606.096 1221.26 606.096C1222.06 606.096 1222.69 606.368 1223.15 606.912C1223.61 607.445 1223.84 608.197 1223.84 609.168V614H1222.14V609.2C1222.14 608.667 1222.03 608.256 1221.8 607.968C1221.59 607.669 1221.26 607.52 1220.81 607.52C1220.36 607.52 1219.95 607.632 1219.58 607.856C1219.21 608.08 1218.9 608.352 1218.65 608.672V614ZM1227.95 611.744C1227.95 612.096 1228.01 612.363 1228.13 612.544C1228.26 612.725 1228.49 612.816 1228.82 612.816C1229.23 612.816 1229.61 612.709 1229.95 612.496L1230.32 613.728C1230.08 613.877 1229.81 613.989 1229.52 614.064C1229.24 614.139 1228.91 614.176 1228.53 614.176C1227.76 614.176 1227.2 613.984 1226.83 613.6C1226.48 613.205 1226.31 612.587 1226.31 611.744V607.536H1225.12V606.272H1226.32L1226.72 604.064H1227.95V606.272H1230.24V607.536H1227.95V611.744Z" fill="#0C2F53"/>
<path d="M1093.83 655.154C1093.22 655.154 1092.69 655.098 1092.24 654.986C1091.79 654.874 1091.39 654.725 1091.05 654.538L1091.43 653.32C1091.73 653.479 1092.08 653.609 1092.48 653.712C1092.89 653.805 1093.32 653.852 1093.76 653.852C1094.36 653.852 1094.86 653.74 1095.25 653.516C1095.65 653.283 1095.85 652.919 1095.85 652.424C1095.85 652.181 1095.79 651.976 1095.67 651.808C1095.56 651.631 1095.41 651.481 1095.22 651.36C1095.03 651.239 1094.81 651.131 1094.56 651.038C1094.31 650.945 1094.05 650.856 1093.79 650.772C1093.5 650.679 1093.2 650.567 1092.88 650.436C1092.57 650.305 1092.27 650.137 1092 649.932C1091.74 649.717 1091.52 649.456 1091.34 649.148C1091.17 648.831 1091.08 648.439 1091.08 647.972C1091.08 647.608 1091.14 647.272 1091.26 646.964C1091.39 646.656 1091.59 646.385 1091.85 646.152C1092.11 645.919 1092.44 645.737 1092.85 645.606C1093.27 645.475 1093.76 645.41 1094.34 645.41C1094.84 645.41 1095.3 645.457 1095.71 645.55C1096.12 645.643 1096.5 645.783 1096.86 645.97L1096.48 647.146C1096.16 646.997 1095.82 646.889 1095.46 646.824C1095.1 646.749 1094.75 646.712 1094.39 646.712C1093.75 646.712 1093.28 646.829 1092.98 647.062C1092.69 647.295 1092.55 647.589 1092.55 647.944C1092.55 648.187 1092.6 648.392 1092.7 648.56C1092.81 648.719 1092.96 648.859 1093.13 648.98C1093.31 649.101 1093.52 649.209 1093.75 649.302C1093.98 649.386 1094.23 649.47 1094.48 649.554C1094.81 649.666 1095.14 649.797 1095.47 649.946C1095.81 650.086 1096.11 650.268 1096.38 650.492C1096.66 650.707 1096.89 650.973 1097.05 651.29C1097.23 651.607 1097.32 651.995 1097.32 652.452C1097.32 652.919 1097.23 653.32 1097.05 653.656C1096.89 653.992 1096.65 654.272 1096.34 654.496C1096.03 654.72 1095.66 654.888 1095.23 655C1094.81 655.103 1094.34 655.154 1093.83 655.154ZM1100.46 655H1098.98V648.238H1100.46V655ZM1099.72 647.188C1099.42 647.188 1099.19 647.099 1099.02 646.922C1098.86 646.745 1098.78 646.535 1098.78 646.292C1098.78 646.049 1098.86 645.844 1099.02 645.676C1099.19 645.499 1099.42 645.41 1099.72 645.41C1100.02 645.41 1100.24 645.499 1100.4 645.676C1100.57 645.844 1100.66 646.049 1100.66 646.292C1100.66 646.535 1100.57 646.745 1100.4 646.922C1100.24 647.099 1100.02 647.188 1099.72 647.188ZM1106.91 650.352C1106.73 650.063 1106.5 649.82 1106.21 649.624C1105.93 649.428 1105.62 649.33 1105.27 649.33C1104.77 649.33 1104.35 649.517 1104.03 649.89C1103.7 650.254 1103.54 650.8 1103.54 651.528C1103.54 651.939 1103.58 652.284 1103.66 652.564C1103.76 652.844 1103.88 653.073 1104.03 653.25C1104.19 653.427 1104.36 653.558 1104.56 653.642C1104.77 653.717 1104.98 653.754 1105.2 653.754C1105.71 653.754 1106.12 653.567 1106.44 653.194C1106.75 652.821 1106.91 652.303 1106.91 651.64V650.352ZM1106.93 653.838C1106.75 654.137 1106.49 654.407 1106.14 654.65C1105.8 654.883 1105.38 655 1104.9 655C1104.49 655 1104.11 654.921 1103.76 654.762C1103.42 654.603 1103.12 654.379 1102.87 654.09C1102.61 653.791 1102.41 653.427 1102.26 652.998C1102.12 652.569 1102.05 652.083 1102.05 651.542C1102.05 651.085 1102.11 650.646 1102.24 650.226C1102.37 649.806 1102.55 649.437 1102.8 649.12C1103.04 648.803 1103.34 648.551 1103.69 648.364C1104.05 648.177 1104.46 648.084 1104.92 648.084C1105.18 648.084 1105.4 648.117 1105.61 648.182C1105.82 648.247 1106 648.336 1106.16 648.448C1106.32 648.551 1106.47 648.667 1106.59 648.798C1106.72 648.929 1106.83 649.059 1106.91 649.19L1107.11 648.238H1108.4V654.44C1108.4 655.056 1108.31 655.579 1108.14 656.008C1107.99 656.437 1107.76 656.787 1107.46 657.058C1107.17 657.329 1106.82 657.525 1106.42 657.646C1106.02 657.767 1105.59 657.828 1105.12 657.828C1104.61 657.828 1104.12 657.763 1103.65 657.632C1103.19 657.501 1102.82 657.343 1102.53 657.156L1102.91 655.994C1103.21 656.181 1103.53 656.321 1103.89 656.414C1104.24 656.507 1104.6 656.554 1104.95 656.554C1105.24 656.554 1105.5 656.521 1105.74 656.456C1105.98 656.391 1106.19 656.279 1106.37 656.12C1106.54 655.971 1106.68 655.761 1106.77 655.49C1106.87 655.229 1106.93 654.893 1106.93 654.482V653.838ZM1111.85 655H1110.36V648.238H1111.65L1111.85 649.19C1111.94 649.069 1112.06 648.943 1112.21 648.812C1112.36 648.681 1112.53 648.565 1112.73 648.462C1112.92 648.35 1113.14 648.261 1113.37 648.196C1113.61 648.121 1113.86 648.084 1114.13 648.084C1114.83 648.084 1115.38 648.322 1115.78 648.798C1116.18 649.265 1116.38 649.923 1116.38 650.772V655H1114.9V650.8C1114.9 650.333 1114.8 649.974 1114.6 649.722C1114.42 649.461 1114.13 649.33 1113.74 649.33C1113.34 649.33 1112.99 649.428 1112.66 649.624C1112.33 649.82 1112.06 650.058 1111.85 650.338V655ZM1123.29 655H1121.78V645.564H1123.29V655ZM1126.83 655H1125.35V648.238H1126.64L1126.83 649.19C1126.92 649.069 1127.05 648.943 1127.2 648.812C1127.34 648.681 1127.52 648.565 1127.71 648.462C1127.91 648.35 1128.12 648.261 1128.36 648.196C1128.59 648.121 1128.84 648.084 1129.11 648.084C1129.81 648.084 1130.36 648.322 1130.77 648.798C1131.17 649.265 1131.37 649.923 1131.37 650.772V655H1129.88V650.8C1129.88 650.333 1129.79 649.974 1129.59 649.722C1129.4 649.461 1129.11 649.33 1128.72 649.33C1128.33 649.33 1127.97 649.428 1127.64 649.624C1127.32 649.82 1127.05 650.058 1126.83 650.338V655ZM1142.7 645.564L1144.2 650.464C1144.34 650.921 1144.46 651.407 1144.55 651.92C1144.65 652.424 1144.74 652.975 1144.82 653.572H1144.84C1144.86 653.273 1144.88 652.989 1144.9 652.718C1144.93 652.447 1144.96 652.181 1144.98 651.92C1145.02 651.659 1145.06 651.397 1145.11 651.136C1145.16 650.865 1145.21 650.585 1145.28 650.296L1146.31 645.564H1147.84L1145.66 655H1144.13L1142.49 649.498C1142.37 649.106 1142.26 648.691 1142.17 648.252C1142.09 647.813 1142.01 647.365 1141.95 646.908H1141.92C1141.85 647.365 1141.77 647.813 1141.68 648.252C1141.6 648.691 1141.49 649.106 1141.37 649.498L1139.73 655H1138.21L1136.02 645.564H1137.55L1138.59 650.296C1138.65 650.585 1138.71 650.865 1138.75 651.136C1138.8 651.397 1138.84 651.659 1138.87 651.92C1138.9 652.181 1138.93 652.447 1138.95 652.718C1138.98 652.989 1139 653.273 1139.02 653.572H1139.05C1139.12 652.975 1139.21 652.424 1139.3 651.92C1139.4 651.407 1139.52 650.921 1139.66 650.464L1141.16 645.564H1142.7ZM1150.94 653.026C1150.94 653.334 1150.99 653.567 1151.09 653.726C1151.2 653.885 1151.41 653.964 1151.69 653.964C1152.06 653.964 1152.39 653.871 1152.69 653.684L1153.01 654.762C1152.8 654.893 1152.56 654.991 1152.31 655.056C1152.07 655.121 1151.78 655.154 1151.44 655.154C1150.77 655.154 1150.28 654.986 1149.96 654.65C1149.65 654.305 1149.5 653.763 1149.5 653.026V649.344H1148.46V648.238H1149.51L1149.86 646.306H1150.94V648.238H1152.94V649.344H1150.94V653.026ZM1155.84 655H1154.36V645.564H1155.84V649.162C1155.94 649.05 1156.06 648.929 1156.21 648.798C1156.36 648.667 1156.53 648.551 1156.73 648.448C1156.92 648.345 1157.14 648.261 1157.37 648.196C1157.61 648.121 1157.87 648.084 1158.15 648.084C1158.83 648.084 1159.37 648.322 1159.78 648.798C1160.19 649.265 1160.39 649.923 1160.39 650.772V655H1158.91V650.8C1158.91 650.333 1158.81 649.974 1158.62 649.722C1158.42 649.461 1158.12 649.33 1157.72 649.33C1157.33 649.33 1156.97 649.428 1156.64 649.624C1156.32 649.811 1156.06 650.039 1155.84 650.31V655ZM1173.34 650.254C1173.34 651.813 1172.94 652.993 1172.13 653.796C1171.34 654.599 1170.16 655 1168.6 655H1165.76V645.564H1168.6C1170.16 645.564 1171.34 645.961 1172.13 646.754C1172.94 647.547 1173.34 648.714 1173.34 650.254ZM1171.82 650.254C1171.82 649.657 1171.75 649.148 1171.6 648.728C1171.46 648.299 1171.25 647.949 1170.97 647.678C1170.7 647.407 1170.36 647.211 1169.96 647.09C1169.57 646.969 1169.12 646.908 1168.6 646.908H1167.27V653.656H1168.6C1169.12 653.656 1169.57 653.591 1169.96 653.46C1170.36 653.329 1170.7 653.129 1170.97 652.858C1171.25 652.587 1171.46 652.237 1171.6 651.808C1171.75 651.379 1171.82 650.861 1171.82 650.254ZM1174.98 645.564H1180.93V646.894H1176.46V649.498H1180.65V650.814H1176.46V653.684H1181.01V655H1174.98V645.564ZM1189.13 648.56C1189.13 648.989 1189.05 649.391 1188.89 649.764C1188.74 650.128 1188.52 650.45 1188.23 650.73C1187.95 651.001 1187.61 651.215 1187.2 651.374C1186.8 651.533 1186.34 651.612 1185.84 651.612H1184.19V655H1182.68V645.564H1185.92C1186.43 645.564 1186.88 645.643 1187.27 645.802C1187.67 645.951 1188 646.161 1188.28 646.432C1188.56 646.703 1188.77 647.02 1188.91 647.384C1189.05 647.748 1189.13 648.14 1189.13 648.56ZM1187.62 648.56C1187.62 648.056 1187.47 647.655 1187.18 647.356C1186.89 647.057 1186.47 646.908 1185.92 646.908H1184.19V650.268H1185.84C1186.4 650.268 1186.83 650.119 1187.14 649.82C1187.46 649.512 1187.62 649.092 1187.62 648.56ZM1197.43 655H1195.86L1195.03 652.676H1191.38L1190.57 655H1189L1192.44 645.564H1193.98L1197.43 655ZM1193.87 649.372L1193.23 647.132H1193.2L1192.55 649.372L1191.85 651.374H1194.57L1193.87 649.372ZM1204.33 655.154C1203.72 655.154 1203.18 655.098 1202.74 654.986C1202.29 654.874 1201.89 654.725 1201.55 654.538L1201.92 653.32C1202.22 653.479 1202.57 653.609 1202.97 653.712C1203.38 653.805 1203.81 653.852 1204.26 653.852C1204.86 653.852 1205.35 653.74 1205.75 653.516C1206.15 653.283 1206.35 652.919 1206.35 652.424C1206.35 652.181 1206.29 651.976 1206.17 651.808C1206.05 651.631 1205.9 651.481 1205.72 651.36C1205.53 651.239 1205.31 651.131 1205.06 651.038C1204.81 650.945 1204.55 650.856 1204.29 650.772C1204 650.679 1203.7 650.567 1203.38 650.436C1203.06 650.305 1202.77 650.137 1202.5 649.932C1202.24 649.717 1202.02 649.456 1201.84 649.148C1201.66 648.831 1201.57 648.439 1201.57 647.972C1201.57 647.608 1201.63 647.272 1201.76 646.964C1201.89 646.656 1202.08 646.385 1202.34 646.152C1202.6 645.919 1202.94 645.737 1203.35 645.606C1203.76 645.475 1204.26 645.41 1204.84 645.41C1205.34 645.41 1205.8 645.457 1206.21 645.55C1206.62 645.643 1207 645.783 1207.36 645.97L1206.98 647.146C1206.66 646.997 1206.32 646.889 1205.96 646.824C1205.6 646.749 1205.25 646.712 1204.89 646.712C1204.25 646.712 1203.78 646.829 1203.48 647.062C1203.19 647.295 1203.04 647.589 1203.04 647.944C1203.04 648.187 1203.09 648.392 1203.2 648.56C1203.31 648.719 1203.45 648.859 1203.63 648.98C1203.81 649.101 1204.01 649.209 1204.25 649.302C1204.48 649.386 1204.72 649.47 1204.98 649.554C1205.3 649.666 1205.63 649.797 1205.97 649.946C1206.31 650.086 1206.61 650.268 1206.88 650.492C1207.16 650.707 1207.38 650.973 1207.55 651.29C1207.73 651.607 1207.82 651.995 1207.82 652.452C1207.82 652.919 1207.73 653.32 1207.55 653.656C1207.38 653.992 1207.15 654.272 1206.84 654.496C1206.53 654.72 1206.16 654.888 1205.73 655C1205.3 655.103 1204.84 655.154 1204.33 655.154ZM1211.81 655.154C1211.19 655.154 1210.66 655.098 1210.21 654.986C1209.77 654.874 1209.37 654.725 1209.02 654.538L1209.4 653.32C1209.7 653.479 1210.05 653.609 1210.45 653.712C1210.86 653.805 1211.29 653.852 1211.74 653.852C1212.34 653.852 1212.83 653.74 1213.22 653.516C1213.62 653.283 1213.83 652.919 1213.83 652.424C1213.83 652.181 1213.76 651.976 1213.64 651.808C1213.53 651.631 1213.38 651.481 1213.2 651.36C1213.01 651.239 1212.79 651.131 1212.54 651.038C1212.29 650.945 1212.03 650.856 1211.77 650.772C1211.48 650.679 1211.17 650.567 1210.86 650.436C1210.54 650.305 1210.25 650.137 1209.98 649.932C1209.71 649.717 1209.49 649.456 1209.32 649.148C1209.14 648.831 1209.05 648.439 1209.05 647.972C1209.05 647.608 1209.11 647.272 1209.23 646.964C1209.36 646.656 1209.56 646.385 1209.82 646.152C1210.08 645.919 1210.42 645.737 1210.83 645.606C1211.24 645.475 1211.73 645.41 1212.31 645.41C1212.82 645.41 1213.27 645.457 1213.69 645.55C1214.1 645.643 1214.48 645.783 1214.83 645.97L1214.46 647.146C1214.14 646.997 1213.8 646.889 1213.43 646.824C1213.08 646.749 1212.72 646.712 1212.37 646.712C1211.73 646.712 1211.25 646.829 1210.96 647.062C1210.67 647.295 1210.52 647.589 1210.52 647.944C1210.52 648.187 1210.57 648.392 1210.68 648.56C1210.79 648.719 1210.93 648.859 1211.11 648.98C1211.29 649.101 1211.49 649.209 1211.73 649.302C1211.96 649.386 1212.2 649.47 1212.45 649.554C1212.78 649.666 1213.11 649.797 1213.45 649.946C1213.78 650.086 1214.09 650.268 1214.36 650.492C1214.64 650.707 1214.86 650.973 1215.03 651.29C1215.21 651.607 1215.3 651.995 1215.3 652.452C1215.3 652.919 1215.21 653.32 1215.03 653.656C1214.86 653.992 1214.62 654.272 1214.32 654.496C1214.01 654.72 1213.64 654.888 1213.21 655C1212.78 655.103 1212.31 655.154 1211.81 655.154ZM1220.66 645.41C1221.39 645.41 1222.03 645.536 1222.57 645.788C1223.11 646.031 1223.56 646.371 1223.91 646.81C1224.28 647.239 1224.54 647.753 1224.71 648.35C1224.89 648.947 1224.98 649.591 1224.98 650.282C1224.98 650.973 1224.89 651.617 1224.71 652.214C1224.54 652.811 1224.28 653.329 1223.91 653.768C1223.56 654.197 1223.11 654.538 1222.57 654.79C1222.03 655.033 1221.39 655.154 1220.66 655.154C1219.94 655.154 1219.3 655.033 1218.76 654.79C1218.22 654.538 1217.77 654.197 1217.4 653.768C1217.05 653.329 1216.78 652.811 1216.6 652.214C1216.44 651.617 1216.35 650.973 1216.35 650.282C1216.35 649.591 1216.44 648.947 1216.6 648.35C1216.78 647.753 1217.05 647.239 1217.4 646.81C1217.77 646.371 1218.22 646.031 1218.76 645.788C1219.3 645.536 1219.94 645.41 1220.66 645.41ZM1220.66 653.936C1221.6 653.936 1222.3 653.619 1222.76 652.984C1223.23 652.34 1223.46 651.439 1223.46 650.282C1223.46 649.125 1223.23 648.229 1222.76 647.594C1222.3 646.95 1221.6 646.628 1220.66 646.628C1219.73 646.628 1219.03 646.95 1218.56 647.594C1218.1 648.229 1217.86 649.125 1217.86 650.282C1217.86 651.439 1218.1 652.34 1218.56 652.984C1219.03 653.619 1219.73 653.936 1220.66 653.936Z" fill="#0C2F53"/>
<path d="M1090.46 656.75H1225.54V657.45H1090.46V656.75Z" fill="#0C2F53"/>
<path d="M995.976 408.288C994.904 408.288 993.944 408.184 993.096 407.976C992.248 407.752 991.488 407.448 990.816 407.064L991.608 404.52C992.184 404.84 992.832 405.112 993.552 405.336C994.288 405.56 995.016 405.672 995.736 405.672C996.648 405.672 997.416 405.496 998.04 405.144C998.664 404.776 998.976 404.216 998.976 403.464C998.976 403.096 998.88 402.784 998.688 402.528C998.512 402.272 998.264 402.048 997.944 401.856C997.64 401.664 997.288 401.504 996.888 401.376C996.504 401.232 996.104 401.088 995.688 400.944C995.192 400.784 994.664 400.592 994.104 400.368C993.544 400.128 993.024 399.824 992.544 399.456C992.08 399.072 991.688 398.6 991.368 398.04C991.064 397.48 990.912 396.792 990.912 395.976C990.912 395.368 991.016 394.792 991.224 394.248C991.448 393.704 991.792 393.232 992.256 392.832C992.72 392.432 993.312 392.12 994.032 391.896C994.752 391.656 995.616 391.536 996.624 391.536C997.536 391.536 998.368 391.624 999.12 391.8C999.888 391.976 1000.62 392.24 1001.3 392.592L1000.51 394.992C999.904 394.72 999.272 394.512 998.616 394.368C997.96 394.224 997.352 394.152 996.792 394.152C995.832 394.152 995.12 394.32 994.656 394.656C994.192 394.992 993.96 395.416 993.96 395.928C993.96 396.296 994.048 396.616 994.224 396.888C994.4 397.144 994.632 397.368 994.92 397.56C995.208 397.752 995.536 397.92 995.904 398.064C996.272 398.208 996.648 398.344 997.032 398.472C997.608 398.664 998.192 398.888 998.784 399.144C999.376 399.384 999.912 399.696 1000.39 400.08C1000.87 400.464 1001.26 400.936 1001.57 401.496C1001.87 402.04 1002.02 402.712 1002.02 403.512C1002.02 404.328 1001.86 405.032 1001.54 405.624C1001.24 406.216 1000.82 406.712 1000.27 407.112C999.744 407.512 999.112 407.808 998.376 408C997.64 408.192 996.84 408.288 995.976 408.288ZM1007.64 408H1004.57V396.408H1007.64V408ZM1006.11 391.536C1006.7 391.536 1007.15 391.712 1007.47 392.064C1007.79 392.4 1007.95 392.8 1007.95 393.264C1007.95 393.728 1007.79 394.136 1007.47 394.488C1007.15 394.824 1006.7 394.992 1006.11 394.992C1005.51 394.992 1005.06 394.824 1004.74 394.488C1004.42 394.136 1004.26 393.728 1004.26 393.264C1004.26 392.8 1004.42 392.4 1004.74 392.064C1005.06 391.712 1005.51 391.536 1006.11 391.536ZM1018.31 400.104C1018.03 399.672 1017.68 399.312 1017.28 399.024C1016.9 398.72 1016.41 398.568 1015.82 398.568C1015.1 398.568 1014.48 398.864 1013.97 399.456C1013.46 400.048 1013.2 400.904 1013.2 402.024C1013.2 402.68 1013.27 403.232 1013.39 403.68C1013.54 404.128 1013.73 404.488 1013.97 404.76C1014.21 405.032 1014.49 405.232 1014.81 405.36C1015.13 405.488 1015.47 405.552 1015.82 405.552C1016.55 405.552 1017.15 405.28 1017.62 404.736C1018.08 404.192 1018.31 403.416 1018.31 402.408V400.104ZM1018.36 406.2C1018.03 406.664 1017.59 407.08 1017.07 407.448C1016.55 407.816 1015.89 408 1015.07 408C1014.39 408 1013.74 407.864 1013.13 407.592C1012.54 407.32 1012.02 406.928 1011.57 406.416C1011.12 405.904 1010.77 405.28 1010.51 404.544C1010.26 403.808 1010.13 402.968 1010.13 402.024C1010.13 401.24 1010.23 400.496 1010.44 399.792C1010.65 399.072 1010.95 398.44 1011.35 397.896C1011.77 397.352 1012.27 396.92 1012.87 396.6C1013.47 396.28 1014.17 396.12 1014.95 396.12C1015.82 396.12 1016.51 396.312 1017.04 396.696C1017.57 397.064 1017.99 397.472 1018.31 397.92L1018.65 396.408H1021.39V407.064C1021.39 408.104 1021.23 408.992 1020.93 409.728C1020.63 410.464 1020.21 411.064 1019.68 411.528C1019.15 411.992 1018.53 412.328 1017.81 412.536C1017.11 412.76 1016.35 412.872 1015.53 412.872C1014.62 412.872 1013.75 412.76 1012.94 412.536C1012.14 412.312 1011.47 412.024 1010.95 411.672L1011.71 409.296C1012.26 409.648 1012.84 409.904 1013.47 410.064C1014.11 410.224 1014.71 410.304 1015.27 410.304C1015.71 410.304 1016.12 410.248 1016.49 410.136C1016.87 410.04 1017.2 409.864 1017.47 409.608C1017.75 409.368 1017.96 409.048 1018.12 408.648C1018.28 408.264 1018.36 407.784 1018.36 407.208V406.2ZM1027.63 408H1024.56V396.408H1027.3L1027.63 397.92C1027.81 397.728 1028.02 397.528 1028.28 397.32C1028.55 397.096 1028.85 396.896 1029.17 396.72C1029.49 396.544 1029.84 396.4 1030.22 396.288C1030.62 396.176 1031.04 396.12 1031.47 396.12C1032.61 396.12 1033.51 396.52 1034.18 397.32C1034.87 398.12 1035.22 399.248 1035.22 400.704V408H1032.14V400.8C1032.14 400.064 1032.02 399.512 1031.76 399.144C1031.5 398.76 1031.07 398.568 1030.46 398.568C1029.9 398.568 1029.37 398.728 1028.86 399.048C1028.36 399.368 1027.95 399.72 1027.63 400.104V408ZM1047.09 408H1043.97V391.824H1047.09V408ZM1053.41 408H1050.34V396.408H1053.08L1053.41 397.92C1053.59 397.728 1053.81 397.528 1054.06 397.32C1054.33 397.096 1054.63 396.896 1054.95 396.72C1055.27 396.544 1055.62 396.4 1056.01 396.288C1056.41 396.176 1056.82 396.12 1057.25 396.12C1058.39 396.12 1059.29 396.52 1059.97 397.32C1060.65 398.12 1061 399.248 1061 400.704V408H1057.93V400.8C1057.93 400.064 1057.8 399.512 1057.54 399.144C1057.29 398.76 1056.85 398.568 1056.25 398.568C1055.69 398.568 1055.15 398.728 1054.64 399.048C1054.14 399.368 1053.73 399.72 1053.41 400.104V408Z" fill="#0C2F53"/>
<defs>
<linearGradient id="paint0_linear_2585_238332" x1="821.531" y1="990.086" x2="-60.8885" y2="930.119" gradientUnits="userSpaceOnUse">
<stop stop-color="#0C2F53"/>
<stop offset="1" stop-color="#26588B"/>
</linearGradient>
<linearGradient id="paint1_linear_2585_238332" x1="589.495" y1="556.644" x2="476.662" y2="656.016" gradientUnits="userSpaceOnUse">
<stop stop-color="#FFF200"/>
<stop offset="0.3" stop-color="#FFED00"/>
<stop offset="0.6" stop-color="#FFE100"/>
<stop offset="0.91" stop-color="#FFCD00"/>
<stop offset="1" stop-color="#FFC600"/>
</linearGradient>
<linearGradient id="paint2_linear_2585_238332" x1="602.16" y1="571.623" x2="462.374" y2="427.02" gradientUnits="userSpaceOnUse">
<stop stop-color="#FFF200"/>
<stop offset="0.3" stop-color="#FFED00"/>
<stop offset="0.6" stop-color="#FFE100"/>
<stop offset="0.91" stop-color="#FFCD00"/>
<stop offset="1" stop-color="#FFC600"/>
</linearGradient>
<linearGradient id="paint3_linear_2585_238332" x1="1004.05" y1="616.769" x2="1303.42" y2="603.484" gradientUnits="userSpaceOnUse">
<stop stop-color="#FFF200"/>
<stop offset="1" stop-color="#FFC600"/>
</linearGradient>
<clipPath id="clip0_2585_238332">
<rect width="378" height="198" fill="white" transform="translate(253 419)"/>
</clipPath>
</defs>
</svg>
